<mxfile host="app.diagrams.net" modified="2021-01-14T08:49:46.833Z" agent="5.0 (Windows NT 10.0; Win64; x64) AppleWebKit/537.36 (KHTML, like Gecko) Chrome/87.0.4280.141 Safari/537.36" etag="sNqeM05wTkePJXbPmTFI" version="14.2.2" type="github">
  <diagram name="Page-1" id="9f46799a-70d6-7492-0946-bef42562c5a5">
    <mxGraphModel dx="1422" dy="794" grid="1" gridSize="10" guides="1" tooltips="1" connect="1" arrows="1" fold="1" page="1" pageScale="1" pageWidth="1100" pageHeight="850" background="#ffffff" math="0" shadow="0">
      <root>
        <mxCell id="0" />
        <mxCell id="1" parent="0" />
        <mxCell id="H9CU3nUE-carBYAoRNaP-1" value="" style="aspect=fixed;html=1;points=[];align=center;image;fontSize=12;image=img/lib/mscae/Cache_Redis_Product.svg;" vertex="1" parent="1">
          <mxGeometry x="760" y="394.5" width="50" height="42" as="geometry" />
        </mxCell>
        <mxCell id="H9CU3nUE-carBYAoRNaP-2" value="" style="verticalLabelPosition=bottom;html=1;verticalAlign=top;align=center;strokeColor=none;fillColor=#00BEF2;shape=mxgraph.azure.mysql_database;" vertex="1" parent="1">
          <mxGeometry x="252.5" y="395" width="37.5" height="50" as="geometry" />
        </mxCell>
        <mxCell id="H9CU3nUE-carBYAoRNaP-3" value="" style="points=[[0,0,0],[0.25,0,0],[0.5,0,0],[0.75,0,0],[1,0,0],[0,1,0],[0.25,1,0],[0.5,1,0],[0.75,1,0],[1,1,0],[0,0.25,0],[0,0.5,0],[0,0.75,0],[1,0.25,0],[1,0.5,0],[1,0.75,0]];outlineConnect=0;fontColor=#232F3E;gradientColor=#945DF2;gradientDirection=north;fillColor=#5A30B5;strokeColor=#ffffff;dashed=0;verticalLabelPosition=bottom;verticalAlign=top;align=center;html=1;fontSize=12;fontStyle=0;aspect=fixed;shape=mxgraph.aws4.resourceIcon;resIcon=mxgraph.aws4.managed_streaming_for_kafka;" vertex="1" parent="1">
          <mxGeometry x="280" y="530" width="40" height="40" as="geometry" />
        </mxCell>
        <mxCell id="H9CU3nUE-carBYAoRNaP-5" value="" style="points=[[0,0,0],[0.25,0,0],[0.5,0,0],[0.75,0,0],[1,0,0],[0,1,0],[0.25,1,0],[0.5,1,0],[0.75,1,0],[1,1,0],[0,0.25,0],[0,0.5,0],[0,0.75,0],[1,0.25,0],[1,0.5,0],[1,0.75,0]];outlineConnect=0;fontColor=#232F3E;gradientColor=#60A337;gradientDirection=north;fillColor=#277116;strokeColor=#ffffff;dashed=0;verticalLabelPosition=bottom;verticalAlign=top;align=center;html=1;fontSize=12;fontStyle=0;aspect=fixed;shape=mxgraph.aws4.resourceIcon;resIcon=mxgraph.aws4.s3;" vertex="1" parent="1">
          <mxGeometry x="620" y="391" width="49" height="49" as="geometry" />
        </mxCell>
        <mxCell id="H9CU3nUE-carBYAoRNaP-6" value="" style="shadow=0;dashed=0;html=1;strokeColor=none;fillColor=#EF8F21;labelPosition=center;verticalLabelPosition=bottom;verticalAlign=top;align=center;outlineConnect=0;shape=mxgraph.veeam.nas_backup;" vertex="1" parent="1">
          <mxGeometry x="365.2" y="400.2" width="44.8" height="44.8" as="geometry" />
        </mxCell>
        <mxCell id="H9CU3nUE-carBYAoRNaP-7" value="执行层" style="rounded=0;whiteSpace=wrap;html=1;" vertex="1" parent="1">
          <mxGeometry x="80" y="650" width="120" height="60" as="geometry" />
        </mxCell>
        <mxCell id="H9CU3nUE-carBYAoRNaP-8" value="数据存储层" style="rounded=0;whiteSpace=wrap;html=1;" vertex="1" parent="1">
          <mxGeometry x="70" y="395" width="120" height="60" as="geometry" />
        </mxCell>
        <mxCell id="H9CU3nUE-carBYAoRNaP-9" value="核心能力层" style="rounded=0;whiteSpace=wrap;html=1;" vertex="1" parent="1">
          <mxGeometry x="70" y="282" width="120" height="60" as="geometry" />
        </mxCell>
        <mxCell id="H9CU3nUE-carBYAoRNaP-10" value="应用层" style="rounded=0;whiteSpace=wrap;html=1;" vertex="1" parent="1">
          <mxGeometry x="60" y="170" width="120" height="60" as="geometry" />
        </mxCell>
        <mxCell id="H9CU3nUE-carBYAoRNaP-11" value="数据传输层" style="rounded=0;whiteSpace=wrap;html=1;" vertex="1" parent="1">
          <mxGeometry x="70" y="520" width="120" height="60" as="geometry" />
        </mxCell>
        <mxCell id="H9CU3nUE-carBYAoRNaP-13" value="" style="shape=image;html=1;verticalAlign=top;verticalLabelPosition=bottom;labelBackgroundColor=#ffffff;imageAspect=0;aspect=fixed;image=https://cdn3.iconfinder.com/data/icons/glypho-free/64/rocket-128.png;imageBackground=#FF69F5;" vertex="1" parent="1">
          <mxGeometry x="460" y="522" width="48" height="48" as="geometry" />
        </mxCell>
        <mxCell id="H9CU3nUE-carBYAoRNaP-14" value="调度引擎" style="rounded=0;whiteSpace=wrap;html=1;" vertex="1" parent="1">
          <mxGeometry x="230" y="282" width="120" height="60" as="geometry" />
        </mxCell>
        <mxCell id="H9CU3nUE-carBYAoRNaP-15" value="文件分发" style="rounded=0;whiteSpace=wrap;html=1;" vertex="1" parent="1">
          <mxGeometry x="440" y="282" width="120" height="60" as="geometry" />
        </mxCell>
        <mxCell id="H9CU3nUE-carBYAoRNaP-16" value="编排引擎" style="rounded=0;whiteSpace=wrap;html=1;" vertex="1" parent="1">
          <mxGeometry x="620" y="282" width="120" height="60" as="geometry" />
        </mxCell>
        <mxCell id="H9CU3nUE-carBYAoRNaP-17" value="任务管理" style="rounded=0;whiteSpace=wrap;html=1;" vertex="1" parent="1">
          <mxGeometry x="388" y="180" width="120" height="60" as="geometry" />
        </mxCell>
        <mxCell id="H9CU3nUE-carBYAoRNaP-18" value="脚本管理" style="rounded=0;whiteSpace=wrap;html=1;" vertex="1" parent="1">
          <mxGeometry x="550" y="180" width="120" height="60" as="geometry" />
        </mxCell>
        <mxCell id="H9CU3nUE-carBYAoRNaP-19" value="资源管理" style="rounded=0;whiteSpace=wrap;html=1;" vertex="1" parent="1">
          <mxGeometry x="700" y="180" width="120" height="60" as="geometry" />
        </mxCell>
        <mxCell id="H9CU3nUE-carBYAoRNaP-20" value="任务管理" style="rounded=0;whiteSpace=wrap;html=1;" vertex="1" parent="1">
          <mxGeometry x="230" y="160" width="120" height="60" as="geometry" />
        </mxCell>
      </root>
    </mxGraphModel>
  </diagram>
</mxfile>
